<svg width="12" height="12" viewBox="0 0 12 12" fill="none" xmlns="http://www.w3.org/2000/svg">
<path d="M9.18704 -0.00219727C9.01573 -0.00219727 8.84614 0.0320327 8.68821 0.0984826C8.53129 0.16452 8.38904 0.261054 8.26973 0.382477L1.20664 7.41128C1.1542 7.46347 1.11615 7.52833 1.09621 7.59956L0.0158875 11.4579C-0.0258722 11.607 0.0160583 11.7671 0.125573 11.8766C0.235089 11.9861 0.395159 12.0281 0.544301 11.9863L4.4026 10.906C4.47384 10.886 4.5387 10.8479 4.59088 10.7955L11.6196 3.73253L11.6208 3.73137C11.7407 3.61205 11.836 3.47022 11.9011 3.314C11.9664 3.15728 12 2.98918 12 2.8194C12 2.64962 11.9664 2.48152 11.9011 2.32479C11.836 2.16857 11.7407 2.02673 11.6208 1.90742L11.6196 1.90627L10.1052 0.383373C9.9858 0.261528 9.84321 0.164682 9.68588 0.0984826C9.52794 0.0320327 9.35835 -0.00219727 9.18704 -0.00219727Z" fill="#3F65EA"/>
</svg>
