<svg width="14" height="16" viewBox="0 0 14 16" fill="none" xmlns="http://www.w3.org/2000/svg">
<g id="Property 1=true">
<path id="Union" d="M1.23339 1.23338L1.23339 1.23338C1.5251 0.941667 1.92076 0.777778 2.33332 0.777778H11.6666C12.0791 0.777778 12.4749 0.941687 12.7666 1.23338L13.3165 0.683413L12.7666 1.23338C13.0582 1.52507 13.2221 1.92071 13.2221 2.33332L13.2222 14.2823L13.2221 14.2824L13.2222 14.2825L13.2221 14.2824L13.1328 14.1931L13.0197 14.1366L7.34747 11.3042L7 11.1306L6.65252 11.3042L0.980364 14.1366L0.86726 14.1931L0.777867 14.2825L0.777883 14.2824L0.777778 2.33332C0.777778 2.33331 0.777778 2.33331 0.777778 2.33331C0.77778 1.92077 0.941671 1.5251 1.23339 1.23338Z" fill="white" stroke="white" stroke-width="1.55556"/>
</g>
</svg>
