<svg width="14" height="16" viewBox="0 0 14 16" fill="none" xmlns="http://www.w3.org/2000/svg">
<g id="Property 1=false">
<path id="Union" d="M1.23339 1.29344L1.23339 1.29344C1.5251 1.00173 1.92076 0.837836 2.33332 0.837836H11.6666C12.0791 0.837836 12.4749 1.00175 12.7666 1.29344L13.3165 0.743471L12.7666 1.29344C13.0582 1.58513 13.2221 1.98076 13.2221 2.39337L13.2222 14.3424L13.2221 14.3424L13.2222 14.3425L13.2221 14.3425L13.1328 14.2531L13.0197 14.1966L7.34747 11.3642L7 11.1907L6.65252 11.3642L0.980364 14.1966L0.86726 14.2531L0.777867 14.3425L0.777883 14.3425L0.777778 2.39337C0.777778 2.39337 0.777778 2.39337 0.777778 2.39337C0.77778 1.98083 0.941671 1.58516 1.23339 1.29344Z" stroke="white" stroke-width="1.55556"/>
</g>
</svg>
