<svg width="50" height="50" viewBox="0 0 50 50" fill="none" xmlns="http://www.w3.org/2000/svg">
<circle cx="25" cy="25" r="25" fill="#173577"/>
<path fill-rule="evenodd" clip-rule="evenodd" d="M24.8973 13.125C26.6574 13.1245 28.3953 13.5186 29.9831 14.2782C31.5709 15.0378 32.9682 16.1437 34.0723 17.5146C35.1764 18.8854 35.9591 20.4863 36.363 22.1995C36.7668 23.9127 36.7815 25.6946 36.4059 27.4142C36.0304 29.1339 35.2741 30.7474 34.1928 32.1363C33.1115 33.5251 31.7326 34.6539 30.1575 35.4396C28.5825 36.2253 26.8513 36.648 25.0914 36.6765C23.3315 36.705 21.5875 36.3386 19.9879 35.6043L14.86 36.262C14.7128 36.2883 14.5613 36.2751 14.4208 36.2239C14.2804 36.1726 14.156 36.085 14.0603 35.9701C13.9647 35.8552 13.9012 35.717 13.8762 35.5695C13.8513 35.4221 13.8659 35.2707 13.9185 35.1307L14.86 31.0539C13.7666 29.2694 13.1685 27.2256 13.1273 25.1331C13.0862 23.0406 13.6034 20.9749 14.6258 19.1487C15.6482 17.3225 17.1387 15.8018 18.9441 14.743C20.7495 13.6843 22.8044 13.1258 24.8973 13.125ZM21.5137 24.9015C21.5137 25.3506 21.3353 25.7814 21.0177 26.099C20.7001 26.4166 20.2693 26.595 19.8202 26.595C19.3711 26.595 18.9403 26.4166 18.6227 26.099C18.3051 25.7814 18.1267 25.3506 18.1267 24.9015C18.1267 24.4524 18.3051 24.0216 18.6227 23.704C18.9403 23.3864 19.3711 23.208 19.8202 23.208C20.2693 23.208 20.7001 23.3864 21.0177 23.704C21.3353 24.0216 21.5137 24.4524 21.5137 24.9015ZM24.9007 26.595C25.3498 26.595 25.7805 26.4166 26.0981 26.099C26.4157 25.7814 26.5941 25.3506 26.5941 24.9015C26.5941 24.4524 26.4157 24.0216 26.0981 23.704C25.7805 23.3864 25.3498 23.208 24.9007 23.208C24.4515 23.208 24.0208 23.3864 23.7032 23.704C23.3856 24.0216 23.2072 24.4524 23.2072 24.9015C23.2072 25.3506 23.3856 25.7814 23.7032 26.099C24.0208 26.4166 24.4515 26.595 24.9007 26.595ZM29.9811 26.595C30.4303 26.595 30.861 26.4166 31.1786 26.099C31.4962 25.7814 31.6746 25.3506 31.6746 24.9015C31.6746 24.4524 31.4962 24.0216 31.1786 23.704C30.861 23.3864 30.4303 23.208 29.9811 23.208C29.532 23.208 29.1012 23.3864 28.7836 23.704C28.4661 24.0216 28.2876 24.4524 28.2876 24.9015C28.2876 25.3506 28.4661 25.7814 28.7836 26.099C29.1012 26.4166 29.532 26.595 29.9811 26.595Z" fill="white"/>
</svg>
