<svg width="38" height="38" viewBox="0 0 38 38" fill="none" xmlns="http://www.w3.org/2000/svg">
<path fill-rule="evenodd" clip-rule="evenodd" d="M18.8355 7.67552e-07C21.6518 -0.000803014 24.4324 0.629694 26.9729 1.84512C29.5133 3.06055 31.749 4.82999 33.5156 7.02331C35.2821 9.21663 36.5345 11.778 37.1806 14.5192C37.8268 17.2603 37.8503 20.1114 37.2494 22.8628C36.6485 25.6142 35.4385 28.1959 33.7084 30.418C31.9783 32.6402 29.772 34.4462 27.2519 35.7033C24.7318 36.9605 21.962 37.6367 19.1461 37.6824C16.3302 37.728 13.54 37.1418 10.9805 35.9669L2.77596 37.0192C2.54044 37.0612 2.29799 37.0402 2.07324 36.9582C1.8485 36.8761 1.64949 36.7361 1.49644 36.5522C1.34339 36.3683 1.24176 36.1472 1.20189 35.9113C1.16201 35.6754 1.18532 35.4331 1.26943 35.2092L2.77586 28.6863C1.02641 25.831 0.069505 22.561 0.00364544 19.213C-0.0622141 15.865 0.765352 12.5599 2.40116 9.63798C4.03696 6.71605 6.4219 4.28285 9.31047 2.58884C12.199 0.894832 15.4869 0.00122304 18.8355 7.67552e-07ZM13.4218 18.8424C13.4218 19.561 13.1363 20.2502 12.6282 20.7584C12.12 21.2665 11.4308 21.552 10.7122 21.552C9.99359 21.552 9.3044 21.2665 8.79626 20.7584C8.28811 20.2502 8.00264 19.561 8.00264 18.8424C8.00264 18.1238 8.28811 17.4346 8.79626 16.9265C9.3044 16.4183 9.99359 16.1328 10.7122 16.1328C11.4308 16.1328 12.12 16.4183 12.6282 16.9265C13.1363 17.4346 13.4218 18.1238 13.4218 18.8424ZM18.841 21.552C19.5596 21.552 20.2488 21.2665 20.7569 20.7584C21.2651 20.2502 21.5505 19.561 21.5505 18.8424C21.5505 18.1238 21.2651 17.4346 20.7569 16.9265C20.2488 16.4183 19.5596 16.1328 18.841 16.1328C18.1223 16.1328 17.4331 16.4183 16.925 16.9265C16.4168 17.4346 16.1314 18.1238 16.1314 18.8424C16.1314 19.561 16.4168 20.2502 16.925 20.7584C17.4331 21.2665 18.1223 21.552 18.841 21.552ZM26.9697 21.552C27.6883 21.552 28.3775 21.2665 28.8856 20.7584C29.3938 20.2502 29.6793 19.561 29.6793 18.8424C29.6793 18.1238 29.3938 17.4346 28.8856 16.9265C28.3775 16.4183 27.6883 16.1328 26.9697 16.1328C26.2511 16.1328 25.5619 16.4183 25.0537 16.9265C24.5456 17.4346 24.2601 18.1238 24.2601 18.8424C24.2601 19.561 24.5456 20.2502 25.0537 20.7584C25.5619 21.2665 26.2511 21.552 26.9697 21.552Z" fill="white"/>
</svg>
