<svg width="19" height="19" viewBox="0 0 19 19" fill="none" xmlns="http://www.w3.org/2000/svg">
<path fill-rule="evenodd" clip-rule="evenodd" d="M3.17146 8.15929C3.17146 6.81743 3.71374 5.53054 4.67901 4.5817C5.64427 3.63286 6.95346 3.09981 8.31855 3.09981C9.68364 3.09981 10.9928 3.63286 11.9581 4.5817C12.9234 5.53054 13.4656 6.81743 13.4656 8.15929C13.4656 9.50115 12.9234 10.7881 11.9581 11.7369C10.9928 12.6857 9.68364 13.2188 8.31855 13.2188C6.95346 13.2188 5.64427 12.6857 4.67901 11.7369C3.71374 10.7881 3.17146 9.50115 3.17146 8.15929ZM8.31855 0.570069C7.10345 0.569916 5.90548 0.851682 4.82205 1.39245C3.73863 1.93322 2.80035 2.71772 2.08352 3.68215C1.3667 4.64658 0.891567 5.76371 0.696777 6.94267C0.501986 8.12164 0.593035 9.32915 0.962517 10.467C1.332 11.6049 1.96948 12.6409 2.82312 13.4909C3.67676 14.3409 4.72245 14.9809 5.87514 15.3588C7.02783 15.7366 8.25497 15.8417 9.45677 15.6654C10.6586 15.4892 11.8011 15.0366 12.7914 14.3445L16.4162 17.9077C16.6589 18.1381 16.9839 18.2656 17.3213 18.2627C17.6587 18.2598 17.9815 18.1268 18.22 17.8922C18.4586 17.6577 18.5939 17.3405 18.5969 17.0088C18.5998 16.6772 18.4701 16.3577 18.2357 16.1191L14.6122 12.5572C15.4335 11.4219 15.921 10.0861 16.0213 8.69645C16.1216 7.30678 15.8309 5.91677 15.1809 4.67875C14.5309 3.44073 13.5467 2.40247 12.3363 1.67775C11.1259 0.953021 9.73585 0.569798 8.31855 0.570069Z" fill="#9F9F9F"/>
</svg>
