<svg width="20" height="21" viewBox="0 0 20 21" fill="none" xmlns="http://www.w3.org/2000/svg">
<path fill-rule="evenodd" clip-rule="evenodd" d="M16.8919 0.1404C17.304 -0.0100482 17.7502 -0.0403458 18.1791 0.0531826C18.612 0.147648 19.0089 0.36446 19.3222 0.677846C19.6355 0.991231 19.8524 1.38801 19.9468 1.82102C20.0403 2.24973 20.01 2.69611 19.8597 3.10812L14.7509 18.4202L14.7506 18.4212C14.6261 18.7977 14.407 19.136 14.1141 19.4036C13.822 19.6705 13.4665 19.8579 13.0815 19.9482C12.6964 20.0421 12.2934 20.0341 11.9122 19.9252C11.5314 19.8164 11.1854 19.6106 10.9081 19.3279L8.16743 16.5997L5.28847 18.0884C5.06398 18.2045 4.79486 18.1933 4.58069 18.0591C4.36653 17.925 4.23916 17.6876 4.24572 17.435L4.36374 12.8841L14.434 5.56908C14.8332 5.27911 14.9218 4.72041 14.6318 4.32122C14.3418 3.92201 13.7831 3.83347 13.3839 4.12344L3.14281 11.5625L0.670322 9.08999C0.402557 8.82242 0.205173 8.49228 0.0963984 8.12969C-0.0116028 7.76969 -0.0291495 7.38866 0.0452514 7.02032C0.119748 6.61792 0.29963 6.24241 0.56662 5.93213C0.835438 5.61971 1.18281 5.38476 1.57283 5.25155L1.57764 5.2499L16.8919 0.1404Z" fill="#BFBFC1"/>
</svg>
