<svg width="viewport" height="viewport" viewBox="0 0 63 16" fill="none" xmlns="http://www.w3.org/2000/svg">
<path d="M6.552 15.54C4.908 15.54 3.66 15.294 2.808 14.802C1.968 14.31 1.548 13.518 1.548 12.426C1.548 11.31 1.968 10.512 2.808 10.032C3.66 9.552 4.908 9.312 6.552 9.312H9.972C11.616 9.312 12.846 9.552 13.662 10.032C14.478 10.512 14.886 11.31 14.886 12.426C14.886 13.518 14.478 14.31 13.662 14.802C12.846 15.294 11.616 15.54 9.972 15.54H6.552ZM0.954 1.212C0.954 0.972 1.08 0.852 1.332 0.852H9.504C9.756 0.852 9.882 0.972 9.882 1.212V2.958C9.882 3.198 9.756 3.318 9.504 3.318H7.29L4.41 8.16C4.362 8.244 4.302 8.316 4.23 8.376C4.158 8.424 4.068 8.448 3.96 8.448H1.134C0.99 8.448 0.888 8.412 0.828 8.34C0.78 8.256 0.786 8.148 0.846 8.016L3.564 3.318H1.332C1.08 3.318 0.954 3.198 0.954 2.958V1.212ZM11.844 8.736C11.592 8.736 11.466 8.616 11.466 8.376V6.468H9.72C9.48 6.468 9.36 6.348 9.36 6.108V4.182C9.36 3.93 9.48 3.804 9.72 3.804H11.466V1.05C11.466 0.797999 11.592 0.671999 11.844 0.671999H14.418C14.67 0.671999 14.796 0.797999 14.796 1.05V8.376C14.796 8.616 14.67 8.736 14.418 8.736H11.844ZM6.966 8.34C6.87 8.34 6.792 8.316 6.732 8.268C6.672 8.22 6.612 8.148 6.552 8.052L5.958 7.062C5.886 6.906 5.892 6.75 5.976 6.594L7.38 4.254C7.452 4.122 7.53 4.056 7.614 4.056C7.71 4.056 7.794 4.122 7.866 4.254L10.062 7.926C10.182 8.202 10.092 8.34 9.792 8.34H6.966ZM9.972 13.326C10.476 13.326 10.818 13.254 10.998 13.11C11.19 12.966 11.286 12.738 11.286 12.426C11.286 12.114 11.19 11.886 10.998 11.742C10.818 11.598 10.476 11.526 9.972 11.526H6.552C6.048 11.526 5.688 11.592 5.472 11.724C5.256 11.856 5.148 12.09 5.148 12.426C5.148 12.774 5.256 13.014 5.472 13.146C5.688 13.266 6.048 13.326 6.552 13.326H9.972ZM28.3286 9.672C28.0886 9.672 27.9686 9.552 27.9686 9.312V6.504H26.9966V9.222C26.9966 9.462 26.8766 9.582 26.6366 9.582H24.5666C24.3266 9.582 24.2066 9.462 24.2066 9.222V1.104C24.2066 0.851999 24.3266 0.725999 24.5666 0.725999H26.6366C26.8766 0.725999 26.9966 0.851999 26.9966 1.104V3.804H27.9686V1.05C27.9686 0.797999 28.0886 0.671999 28.3286 0.671999H30.4166C30.6566 0.671999 30.7766 0.797999 30.7766 1.05V9.312C30.7766 9.552 30.6566 9.672 30.4166 9.672H28.3286ZM17.6186 13.002C17.3786 13.002 17.2586 12.888 17.2586 12.66V10.95C17.2586 10.71 17.3786 10.59 17.6186 10.59H30.4166C30.6566 10.59 30.7766 10.71 30.7766 10.95V15C30.7766 15.24 30.6566 15.36 30.4166 15.36H27.6446C27.4046 15.36 27.2846 15.24 27.2846 15V13.002H17.6186ZM16.6646 1.896C16.6646 1.656 16.7906 1.536 17.0426 1.536H18.6086V0.419999C18.6086 0.167999 18.7346 0.0419995 18.9866 0.0419995H21.1106C21.3626 0.0419995 21.4886 0.167999 21.4886 0.419999V1.536H23.1266C23.3786 1.536 23.5046 1.656 23.5046 1.896V3.606C23.5046 3.846 23.3786 3.966 23.1266 3.966H21.4526L19.4006 9.06C19.3286 9.252 19.1786 9.348 18.9506 9.348H16.8446C16.7006 9.348 16.5986 9.312 16.5386 9.24C16.4906 9.156 16.4966 9.048 16.5566 8.916L18.4646 3.966H17.0426C16.7906 3.966 16.6646 3.846 16.6646 3.606V1.896ZM21.2366 9.258C21.0326 9.258 20.8946 9.162 20.8226 8.97L20.5166 8.16C20.4686 8.028 20.4746 7.872 20.5346 7.692L21.5966 5.028C21.6566 4.872 21.7346 4.794 21.8306 4.794C21.9386 4.794 22.0226 4.872 22.0826 5.028L23.6126 8.844C23.7326 9.12 23.6426 9.258 23.3426 9.258H21.2366ZM37.0732 9.816C37.0133 9.888 36.9473 9.954 36.8753 10.014C36.8153 10.074 36.7313 10.104 36.6233 10.104H33.2213C33.0773 10.104 32.9693 10.062 32.8973 9.978C32.8253 9.894 32.8373 9.792 32.9333 9.672L38.8733 1.23C38.9333 1.146 38.9993 1.08 39.0713 1.032C39.1433 0.972 39.2273 0.942 39.3233 0.942H42.9053C43.0373 0.942 43.1213 0.996 43.1573 1.104C43.2053 1.2 43.1873 1.302 43.1033 1.41L37.0732 9.816ZM40.0613 7.08C39.9413 6.912 39.9533 6.738 40.0973 6.558L41.6453 4.398C41.8013 4.194 41.9573 4.2 42.1133 4.416L46.5953 9.672C46.6913 9.78 46.7033 9.882 46.6313 9.978C46.5593 10.062 46.4513 10.104 46.3073 10.104H42.8153C42.7073 10.104 42.6173 10.074 42.5453 10.014C42.4853 9.954 42.4253 9.888 42.3652 9.816L40.0613 7.08ZM33.0053 15C32.7533 15 32.6273 14.868 32.6273 14.604V12.552C32.6273 12.312 32.7533 12.192 33.0053 12.192H46.4513C46.7033 12.192 46.8293 12.312 46.8293 12.552V14.604C46.8293 14.868 46.7033 15 46.4513 15H33.0053ZM48.8599 5.424C48.8599 5.184 48.9859 5.064 49.2379 5.064H50.6059V3.876C50.6059 3.768 50.6419 3.684 50.7139 3.624C50.7859 3.552 50.8759 3.516 50.9839 3.516H53.6119C53.8399 3.516 53.9539 3.636 53.9539 3.876V5.064H57.1039L57.3919 3.876C57.4519 3.636 57.5779 3.516 57.7699 3.516H60.3619C60.4819 3.516 60.5779 3.546 60.6499 3.606C60.7219 3.666 60.7399 3.756 60.7039 3.876L60.3799 5.064H61.9999C62.2519 5.064 62.3779 5.184 62.3779 5.424V6.846C62.3779 7.086 62.2519 7.206 61.9999 7.206H49.2379C48.9859 7.206 48.8599 7.086 48.8599 6.846V5.424ZM57.5539 10.356V11.526C57.5539 11.766 57.4339 11.886 57.1939 11.886H54.4219C54.1819 11.886 54.0619 11.766 54.0619 11.526V10.356H48.8959C48.6439 10.356 48.5179 10.23 48.5179 9.978V8.394C48.5179 8.154 48.6439 8.034 48.8959 8.034H62.3419C62.5939 8.034 62.7199 8.154 62.7199 8.394V9.978C62.7199 10.23 62.5939 10.356 62.3419 10.356H57.5539ZM62.1799 12.984C62.4199 12.984 62.5399 13.104 62.5399 13.344V14.91C62.5399 15.15 62.4199 15.27 62.1799 15.27H49.1299C48.8899 15.27 48.7699 15.15 48.7699 14.91V11.706C48.7699 11.466 48.8899 11.346 49.1299 11.346H51.8839C52.1359 11.346 52.2619 11.466 52.2619 11.706V12.984H62.1799ZM48.8599 1.23C48.8599 0.989999 48.9859 0.87 49.2379 0.87H61.9999C62.2519 0.87 62.3779 0.989999 62.3779 1.23V2.634C62.3779 2.874 62.2519 2.994 61.9999 2.994H49.2379C48.9859 2.994 48.8599 2.874 48.8599 2.634V1.23Z" fill="#173577"/>
</svg>
